<?xml version="1.0" standalone="no"?>
<!DOCTYPE svg PUBLIC "-//W3C//DTD SVG 20010904//EN"
 "http://www.w3.org/TR/2001/REC-SVG-20010904/DTD/svg10.dtd">
<svg version="1.0" xmlns="http://www.w3.org/2000/svg"
 width="400.000000pt" height="400.000000pt" viewBox="0 0 400.000000 400.000000"
 preserveAspectRatio="xMidYMid meet">
<metadata>
Created by potrace 1.11, written by Peter Selinger 2001-2013
</metadata>
<g transform="translate(0.000000,400.000000) scale(0.100000,-0.100000)"
fill="#000000" stroke="none">
<path d="M1829 3543 c-15 -6 -40 -31 -55 -55 -58 -91 -225 -307 -299 -383 -42
-44 -100 -107 -128 -139 -29 -33 -68 -78 -87 -100 -20 -23 -58 -68 -85 -101
-118 -143 -239 -270 -295 -310 -23 -17 -54 -40 -68 -53 l-27 -22 24 -20 c36
-31 97 -27 155 10 50 32 213 191 336 329 138 155 208 226 216 218 12 -12 -15
-114 -73 -272 -111 -306 -151 -425 -179 -536 -25 -101 -29 -132 -29 -269 0
-153 1 -156 30 -208 45 -83 117 -116 247 -116 53 1 74 9 163 68 178 116 481
417 572 567 12 19 42 99 68 179 44 133 75 203 61 140 -3 -14 -15 -81 -26 -150
-25 -146 -25 -145 -45 -242 -4 -15 -8 -39 -10 -55 -6 -47 -63 -288 -110 -470
-112 -430 -246 -736 -342 -782 -27 -13 -35 -3 -88 112 -20 44 -39 77 -41 74
-6 -5 20 -87 37 -119 9 -16 7 -19 -8 -16 -12 2 -17 -2 -15 -14 5 -33 -17 -18
-39 24 -15 30 -22 64 -24 122 -7 168 43 324 184 579 39 69 41 77 23 77 -27 0
-138 -121 -207 -224 -100 -151 -165 -306 -200 -476 -18 -84 -31 -323 -21 -365
11 -44 61 -58 217 -61 138 -3 185 -12 195 -39 5 -13 10 -13 36 1 17 9 54 23
82 31 77 23 168 67 197 97 15 15 32 46 38 71 9 38 40 73 52 61 2 -2 10 2 17
10 7 8 8 14 3 14 -5 0 13 41 40 90 94 171 207 492 253 720 12 57 57 297 60
320 3 14 8 45 11 70 4 25 9 52 10 60 1 8 6 40 10 70 3 30 9 67 11 82 22 143
20 182 -6 102 -7 -19 -14 -33 -17 -30 -3 3 6 42 20 88 57 186 124 441 147 557
29 149 61 283 75 318 9 22 38 61 65 87 45 43 49 50 38 69 -13 24 -12 55 4 74
24 30 -161 29 -233 -1 -67 -28 -133 -135 -219 -349 -69 -174 -88 -210 -198
-372 -167 -245 -407 -556 -560 -723 -64 -69 -160 -152 -177 -152 -15 0 6 185
35 305 55 229 172 546 328 885 16 36 46 106 67 155 20 50 43 104 50 120 21 48
45 127 45 148 0 57 -48 108 -116 122 -53 12 -166 10 -195 -2z m541 -2603 c-6
-12 -14 -19 -17 -17 -2 3 1 15 7 27 6 12 14 19 17 17 2 -3 -1 -15 -7 -27z"/>
<path d="M2761 2564 c0 -11 3 -14 6 -6 3 7 2 16 -1 19 -3 4 -6 -2 -5 -13z"/>
<path d="M2727 2421 c-4 -17 -3 -21 5 -13 5 5 8 16 6 23 -3 8 -7 3 -11 -10z"/>
</g>
</svg>
